<svg xmlns="http://www.w3.org/2000/svg" viewBox="0 0 48 48" role="img" aria-label="WhatsApp">
  <circle cx="24" cy="24" r="23" fill="#fff" stroke="#111" stroke-width="2"/>
  <path fill="#111" d="M24 8.5c-8.55 0-15.5 6.95-15.5 15.5 0 2.73.72 5.3 1.97 7.53L8.5 39.5l8.2-2.64A15.4 15.4 0 0 0 24 39.5c8.55 0 15.5-6.95 15.5-15.5S32.55 8.5 24 8.5Zm0 27.35c-2.3 0-4.43-.68-6.22-1.84l-.44-.28-4.87 1.57 1.59-4.75-.3-.46a12.9 12.9 0 1 1 10.24 5.76Zm7.06-9.7c-.39-.2-2.3-1.13-2.66-1.25-.36-.13-.62-.2-.88.2-.26.39-1.01 1.25-1.24 1.51-.23.26-.46.29-.85.1-.39-.2-1.64-.61-3.12-1.94-1.15-1.03-1.93-2.3-2.16-2.69-.23-.39-.02-.6.17-.8.17-.17.39-.45.59-.68.2-.23.26-.39.39-.65.13-.26.07-.49-.03-.68-.1-.2-.88-2.11-1.21-2.89-.32-.76-.64-.66-.88-.67h-.75c-.26 0-.68.1-1.04.49-.36.39-1.37 1.34-1.37 3.27 0 1.93 1.4 3.79 1.6 4.05.2.26 2.76 4.22 6.68 5.91.93.4 1.66.64 2.23.82.94.3 1.79.26 2.46.16.75-.11 2.3-.94 2.63-1.85.33-.91.33-1.69.23-1.85-.1-.16-.36-.26-.75-.46Z"/>
</svg>
